<?xml version="1.0" encoding="UTF-8" standalone="no"?>
<svg
   version="1.0"
   width="166pt"
   height="166pt"
   viewBox="8 8 166 166"
   preserveAspectRatio="xMidYMid"
   id="svg10"
   sodipodi:docname="icon.svg"
   inkscape:version="1.2.2 (b0a8486541, 2022-12-01)"
   xmlns:inkscape="http://www.inkscape.org/namespaces/inkscape"
   xmlns:sodipodi="http://sodipodi.sourceforge.net/DTD/sodipodi-0.dtd"
   xmlns="http://www.w3.org/2000/svg"
   xmlns:svg="http://www.w3.org/2000/svg">
  <defs
     id="defs14" />
  <sodipodi:namedview
     id="namedview12"
     pagecolor="#505050"
     bordercolor="#eeeeee"
     borderopacity="1"
     inkscape:showpageshadow="0"
     inkscape:pageopacity="0"
     inkscape:pagecheckerboard="0"
     inkscape:deskcolor="#505050"
     inkscape:document-units="pt"
     showgrid="false"
     inkscape:zoom="1.8950893"
     inkscape:cx="104.7444"
     inkscape:cy="106.85512"
     inkscape:window-width="1444"
     inkscape:window-height="906"
     inkscape:window-x="2310"
     inkscape:window-y="40"
     inkscape:window-maximized="0"
     inkscape:current-layer="svg10" />
  <metadata
     id="metadata2">
Created by potrace 1.10, written by Peter Selinger 2001-2011
</metadata>
  <g
     transform="matrix(0.1,0,0,-0.1,-2.1615717,175.54346)"
     fill="#000000"
     stroke="none"
     id="g8"
     style="fill:#c41c33;fill-opacity:1">
    <path
       d="m 441,1582 c -5,-9 -12,-36 -16,-59 l -7,-42 -61,-3 -62,-3 -1,-290 -2,-290 -45,-205 C 186,417 176,361 184,352 c 4,-4 30,-12 59,-17 l 51,-10 -3,-58 -2,-57 h 272 272 l 280,-60 c 154,-34 287,-60 296,-58 10,2 19,22 26,58 l 10,55 65,5 65,5 v 305 c 1,256 4,316 18,375 30,120 95,430 91,434 -2,2 -27,9 -56,16 l -53,11 v 60 59 l -310,5 -310,5 -240,53 c -132,29 -246,54 -252,57 -7,2 -17,-3 -22,-13 z m 269,-58 195,-42 -239,-1 c -202,-1 -237,1 -233,13 3,8 9,30 12,50 7,33 9,35 39,29 17,-4 119,-26 226,-49 z m 565,-120 c 137,-30 257,-54 267,-54 17,0 18,-17 18,-274 V 801 l -44,-203 c -25,-112 -53,-242 -63,-291 l -18,-87 h -285 l -285,-1 -277,58 -278,58 v 295 l 1,295 58,265 58,265 259,5 c 142,3 277,3 299,1 22,-2 152,-28 290,-57 z m 68,56 h 217 v -51 c 0,-51 0,-51 -27,-44 -16,4 -122,26 -236,50 -115,24 -212,46 -215,51 -4,4 4,4 18,1 14,-4 123,-7 243,-7 z m -933,-2 c 0,-2 -22,-106 -49,-233 l -49,-230 -1,233 -1,232 h 50 c 28,0 50,-1 50,-2 z m 1243,-134 c 12,-4 15,-12 12,-27 -3,-12 -23,-107 -45,-212 -22,-104 -42,-194 -44,-200 -2,-5 -3,95 -2,223 l 1,232 30,-6 c 17,-3 38,-8 48,-10 z M 295,585 c 0,-135 -1,-245 -2,-245 -1,0 -25,5 -53,11 -40,9 -50,14 -46,27 4,13 60,273 92,430 2,12 5,22 7,22 1,0 2,-110 2,-245 z M 1560,470 V 220 h -56 c -41,0 -55,3 -52,12 3,7 27,120 54,250 27,131 50,238 52,238 1,0 2,-112 2,-250 z M 550,270 c 107,-23 200,-43 205,-45 6,-2 -92,-4 -217,-4 l -228,-1 v 51 c 0,48 1,51 23,45 12,-3 110,-24 217,-46 z m 880,-65 c 0,-2 -5,-27 -11,-55 -9,-42 -14,-50 -28,-45 -10,3 -121,27 -247,54 l -229,50 h 258 c 141,1 257,-1 257,-4 z"
       id="path4"
       style="fill:#c41c33;fill-opacity:1" />
    <path
       d="m 762,1313 c -24,-8 -58,-30 -76,-48 -30,-30 -35,-31 -57,-19 -39,22 -92,17 -117,-9 -12,-13 -22,-31 -22,-41 0,-28 29,-76 46,-76 13,0 12,5 -5,26 -48,61 1,111 87,88 21,-6 22,-10 16,-56 -6,-42 -3,-54 16,-79 12,-17 20,-31 18,-32 -1,-1 -21,-11 -43,-22 -45,-23 -80,-69 -89,-120 -15,-80 41,-175 116,-195 80,-22 152,13 209,104 21,34 43,66 49,73 5,7 7,20 4,30 -5,15 -4,16 5,3 6,-8 8,-22 6,-30 -3,-10 15,-35 45,-65 28,-27 50,-52 50,-55 0,-3 -16,-14 -36,-25 -59,-32 -79,-90 -46,-133 19,-25 92,-43 92,-23 0,6 -9,11 -21,11 -59,0 -82,66 -36,107 20,18 179,106 182,100 6,-11 -16,-435 -25,-466 -6,-23 -22,-48 -37,-59 -35,-25 -15,-36 27,-14 73,37 90,100 90,328 0,129 8,212 25,256 4,11 -1,20 -16,28 -20,11 -25,9 -53,-22 -29,-33 -86,-75 -86,-64 0,3 16,35 36,70 38,70 43,120 12,140 -22,14 -62,-8 -88,-48 -16,-26 -20,-28 -20,-11 0,35 -28,65 -60,65 -31,0 -60,-30 -60,-62 0,-16 -53,-112 -83,-149 -26,-34 -90,-69 -124,-69 -53,0 -93,45 -93,105 0,81 43,133 144,176 70,29 73,59 5,59 -24,0 -59,34 -59,58 0,31 16,47 33,34 8,-7 37,-15 64,-19 43,-5 53,-2 78,20 56,48 29,149 -39,146 -11,0 -40,-7 -64,-16 z m 106,-51 c 5,-30 -22,-70 -52,-78 -13,-3 -42,0 -65,6 -37,10 -41,13 -29,27 23,28 102,74 123,71 12,-2 21,-12 23,-26 z m 123,-258 c 7,-9 14,-28 15,-42 1,-15 2,-37 3,-50 1,-27 21,-20 21,8 0,26 48,80 71,80 14,0 18,4 13,13 -5,8 -2,8 9,-2 17,-13 24,-26 9,-17 -4,2 -8,-12 -8,-32 -1,-39 -59,-152 -79,-152 -20,0 -72,59 -100,113 -41,77 -21,116 30,61 14,-15 25,-23 25,-19 0,5 -10,19 -22,32 -12,13 -17,23 -11,23 6,0 17,-7 24,-16 z"
       id="path6"
       style="fill:#c41c33;fill-opacity:1" />
  </g>
</svg>
