<?xml version="1.0" standalone="no"?>
<!DOCTYPE svg PUBLIC "-//W3C//DTD SVG 20010904//EN"
 "http://www.w3.org/TR/2001/REC-SVG-20010904/DTD/svg10.dtd">
<svg version="1.0" xmlns="http://www.w3.org/2000/svg"
 width="700.000000pt" height="700.000000pt" viewBox="0 0 700.000000 700.000000"
 preserveAspectRatio="xMidYMid meet">
<metadata>
Created by potrace 1.14, written by Peter Selinger 2001-2017
</metadata>
<g transform="translate(0.000000,700.000000) scale(0.100000,-0.100000)"
fill="#000000" stroke="none">
<path d="M1467 6650 c-39 -24 -82 -157 -113 -350 -9 -58 -19 -108 -23 -112 -7
-7 -102 -14 -316 -24 -136 -6 -185 -9 -195 -12 -3 -1 -7 -374 -8 -830 -7
-1566 -8 -1616 -31 -1712 -11 -47 -22 -96 -25 -110 -2 -14 -30 -140 -61 -280
-31 -140 -59 -264 -61 -275 -2 -11 -24 -113 -49 -225 -209 -941 -270 -1270
-238 -1300 18 -18 136 -50 296 -81 l169 -33 -6 -110 c-4 -61 -9 -171 -12 -244
l-6 -132 1149 0 c1101 0 1153 -1 1238 -19 50 -11 101 -22 115 -25 14 -2 45 -9
70 -15 25 -5 56 -12 70 -14 14 -3 185 -40 380 -82 195 -42 364 -78 375 -81 26
-5 305 -64 325 -69 25 -6 393 -84 420 -88 14 -3 79 -16 145 -30 66 -14 134
-28 150 -30 17 -3 71 -12 120 -21 172 -29 171 -29 195 -4 33 35 65 123 84 233
3 17 10 55 16 85 5 30 12 73 16 95 3 22 7 41 8 42 0 1 37 4 81 8 44 3 98 8
120 10 22 2 87 7 145 11 58 4 114 8 125 9 11 1 34 3 50 4 l30 1 1 943 c0 830
7 1396 19 1522 2 22 6 75 9 118 8 94 30 225 56 327 10 41 21 86 24 100 2 14
12 57 21 95 71 303 209 946 270 1260 25 132 50 259 54 282 6 29 5 46 -3 52
-20 16 -172 57 -316 86 -47 10 -92 19 -100 20 -8 2 -20 4 -26 4 -8 1 -12 64
-12 219 0 119 0 233 -1 252 l-1 35 -82 1 c-225 3 -995 16 -1158 19 -102 2
-381 7 -620 10 -573 9 -761 13 -785 19 -11 2 -51 12 -90 20 -38 9 -110 25
-160 36 -111 25 -631 140 -664 146 -12 3 -51 11 -85 19 -33 8 -72 16 -86 19
-14 3 -126 28 -250 56 -124 28 -236 53 -250 55 -34 6 -38 7 -245 56 -207 48
-243 53 -268 39z m158 -84 c11 -3 63 -14 115 -26 52 -12 241 -53 420 -91 298
-64 499 -108 670 -145 36 -8 79 -17 95 -20 17 -3 82 -16 145 -30 63 -14 147
-32 185 -40 39 -9 79 -19 90 -23 25 -10 -1830 -8 -1865 2 -14 4 -37 9 -52 13
-32 7 -34 19 -13 89 9 28 18 64 20 80 21 128 41 187 67 199 12 5 80 1 123 -8z
m2650 -452 c169 -16 557 -23 1313 -23 l562 -1 -1 -177 c-1 -226 -2 -228 -60
-227 -24 1 -78 9 -119 18 -41 10 -84 19 -95 22 -11 2 -71 15 -135 29 -118 25
-515 110 -560 119 -29 6 -116 24 -145 30 -11 2 -87 18 -170 35 -359 75 -699
159 -722 177 -16 14 -12 14 42 8 33 -4 74 -8 90 -10z m-455 -33 c58 -11 121
-22 140 -25 19 -4 148 -29 285 -57 138 -28 259 -52 270 -54 11 -2 31 -6 45 -9
14 -3 81 -16 150 -31 164 -35 160 -34 195 -41 17 -3 80 -16 140 -29 252 -55
452 -97 475 -101 14 -3 77 -15 140 -29 99 -21 175 -36 305 -60 17 -3 46 -8 65
-11 73 -11 78 -14 89 -46 6 -18 13 -51 17 -73 3 -22 8 -524 11 -1115 l5 -1076
-67 -309 c-36 -171 -84 -391 -106 -490 -22 -99 -42 -191 -45 -205 -2 -14 -7
-36 -10 -50 -10 -45 -15 -65 -20 -88 -2 -13 -23 -105 -45 -205 -43 -192 -47
-210 -53 -242 -6 -30 -84 -397 -107 -500 -10 -49 -21 -101 -24 -115 -16 -84
-38 -190 -46 -221 l-9 -35 -1205 -2 c-1041 -2 -1215 0 -1270 13 -36 8 -79 17
-95 20 -17 3 -136 28 -265 55 -129 27 -249 52 -267 55 -18 3 -49 10 -68 15
-19 5 -51 12 -70 15 -19 3 -204 42 -410 85 -206 43 -386 81 -400 83 -14 3 -92
19 -175 37 -82 17 -161 34 -175 36 -14 3 -77 16 -140 30 -63 14 -131 27 -150
30 -19 3 -39 8 -43 11 -11 7 -7 2489 4 2527 5 17 12 45 15 61 3 17 16 79 30
140 13 60 26 119 29 130 4 20 104 480 150 690 13 61 45 205 70 320 25 116 57
260 71 320 13 61 27 121 30 135 2 14 9 45 14 70 16 79 72 325 74 328 3 2 151
5 806 17 190 4 346 8 347 8 1 1 268 3 595 5 547 2 601 0 698 -17z m-2526 1 c2
-4 -4 -48 -15 -97 -10 -50 -22 -105 -25 -124 -7 -41 -7 -40 -38 -183 -14 -64
-27 -127 -30 -140 -2 -13 -20 -97 -40 -188 -19 -91 -37 -176 -40 -190 -14 -73
-57 -274 -61 -279 -1 -3 -6 -24 -9 -46 -4 -22 -18 -92 -32 -155 -14 -63 -28
-124 -30 -135 -4 -19 -30 -149 -38 -190 -3 -11 -11 -48 -19 -83 -18 -74 -17
-68 -17 -87 0 -8 -3 -15 -7 -15 -5 0 -9 432 -11 960 l-3 961 206 -1 c112 -1
207 -4 209 -8z m5047 -523 c57 -11 115 -23 129 -25 56 -11 98 -25 109 -37 22
-27 17 -81 -21 -250 -21 -95 -41 -185 -44 -202 -2 -16 -16 -82 -29 -145 -14
-63 -61 -284 -104 -490 -44 -206 -94 -436 -111 -510 -17 -74 -34 -150 -37
-167 -3 -18 -10 -33 -14 -33 -10 0 -10 51 -9 1010 2 895 1 870 16 870 6 0 58
-9 115 -21z m-5527 -3337 c-1 -464 -4 -845 -7 -848 -8 -8 -322 63 -371 84 -35
16 -46 26 -46 44 0 13 18 104 40 203 63 286 138 637 145 675 3 19 12 60 20 90
7 30 16 71 19 91 3 20 8 42 10 50 3 8 7 26 10 40 2 15 16 80 30 145 14 66 27
130 30 144 3 14 14 70 26 125 29 135 28 130 46 220 33 171 39 167 44 -35 3
-102 4 -564 4 -1028z m5335 -316 l2 -1044 -203 2 c-212 3 -264 12 -253 45 7
24 37 154 40 171 1 8 5 29 8 45 4 17 9 39 11 50 2 11 9 38 15 60 5 22 13 56
16 75 3 19 8 42 10 50 2 8 6 26 9 40 5 30 61 297 110 530 19 91 37 176 40 190
2 14 9 45 15 70 5 25 12 56 15 70 14 74 30 146 75 355 64 298 73 335 81 335 4
0 8 -470 9 -1044z m-5051 -665 c97 -22 188 -42 202 -45 38 -7 173 -35 195 -40
37 -8 270 -56 293 -61 33 -6 457 -98 730 -157 127 -28 230 -53 228 -55 -7 -8
-413 -14 -1124 -17 l-743 -4 3 193 c2 144 6 196 17 208 7 10 15 17 17 17 2 0
84 -18 182 -39z m4462 -435 c14 -2 29 -5 33 -5 9 -1 4 -33 -34 -209 -31 -143
-47 -190 -71 -209 -14 -12 -70 -1 -578 112 -36 8 -148 32 -250 54 -294 64
-625 136 -898 196 -139 30 -263 55 -275 55 -14 0 -18 3 -10 8 13 8 2038 6
2083 -2z"/>
<path d="M3000 5534 c-64 -12 -209 -58 -266 -84 -95 -43 -189 -108 -288 -198
-110 -101 -130 -107 -220 -63 -92 44 -159 59 -251 56 -158 -6 -264 -76 -323
-217 -17 -39 -18 -49 -5 -102 28 -123 129 -266 187 -266 41 0 40 20 -3 79 -73
100 -95 149 -96 217 0 79 33 132 108 171 48 26 61 28 167 27 127 0 190 -14
225 -48 21 -21 23 -31 20 -93 -2 -39 -7 -90 -10 -114 -22 -146 -9 -222 53
-310 47 -65 96 -149 91 -153 -2 -2 -55 -30 -118 -61 -199 -102 -298 -197 -382
-365 -48 -98 -64 -177 -63 -310 3 -221 124 -455 309 -595 55 -42 151 -84 226
-100 238 -50 459 19 645 202 84 83 127 138 237 308 54 83 117 177 140 209 36
51 42 66 44 115 1 30 -3 64 -8 73 -14 26 3 22 22 -5 23 -31 36 -85 32 -124 -7
-61 48 -140 222 -318 136 -139 177 -189 170 -207 -3 -8 -58 -45 -122 -84 -179
-107 -266 -217 -280 -353 -15 -158 74 -274 256 -331 109 -34 212 -21 195 25
-7 17 -56 35 -96 35 -90 0 -179 54 -220 134 -32 60 -30 154 4 221 43 83 87
117 328 256 269 154 484 264 504 256 9 -4 12 -39 10 -128 -2 -150 -14 -495
-19 -564 -2 -27 -6 -115 -10 -195 -3 -80 -8 -172 -10 -205 -2 -33 -6 -107 -10
-165 -3 -58 -7 -130 -10 -160 -2 -30 -7 -98 -10 -150 -4 -52 -8 -111 -10 -130
-2 -19 -6 -69 -10 -110 -16 -197 -52 -278 -173 -398 -73 -71 -83 -84 -71 -98
20 -24 86 -11 172 32 245 122 326 285 371 744 11 106 17 298 21 655 4 336 8
469 21 605 7 85 23 222 29 250 3 14 8 41 11 60 3 19 17 69 30 110 28 88 22
109 -43 153 -40 26 -61 32 -106 28 -10 0 -73 -56 -140 -124 -118 -118 -237
-217 -304 -251 -38 -19 -43 -20 -43 -4 0 11 73 158 113 228 49 84 108 211 132
284 54 162 46 279 -24 350 -28 27 -38 31 -89 31 -103 0 -206 -72 -303 -212
-74 -109 -83 -113 -87 -41 -8 139 -100 245 -226 262 -131 18 -253 -86 -277
-236 -22 -138 -269 -570 -399 -698 -103 -102 -276 -201 -398 -230 -206 -48
-405 90 -458 317 -17 76 -10 230 15 317 69 236 215 370 601 549 152 71 220
130 205 178 -8 25 -61 49 -121 55 -24 2 -65 6 -90 9 -60 6 -122 43 -177 106
-52 59 -69 108 -61 174 7 62 28 103 60 117 22 10 33 8 72 -14 130 -73 414
-109 503 -65 53 26 143 110 172 159 101 176 48 418 -110 498 -42 22 -133 33
-183 24z m156 -174 c79 -30 99 -142 46 -253 -55 -115 -141 -178 -247 -182
-107 -4 -336 51 -358 86 -33 52 281 282 461 340 69 22 64 21 98 9z m579 -1176
c25 -25 48 -70 66 -129 9 -30 13 -71 24 -234 3 -46 10 -90 16 -98 30 -35 64 4
74 82 8 71 48 144 119 221 72 79 137 124 181 124 48 0 69 19 56 53 -10 25 -9
27 7 18 9 -5 36 -28 60 -51 45 -43 56 -68 23 -50 -11 5 -22 10 -24 10 -9 0
-27 -90 -27 -135 0 -136 -210 -568 -306 -631 -23 -16 -27 -16 -63 1 -100 45
-297 288 -399 492 -67 133 -95 278 -63 317 33 39 97 12 196 -84 128 -123 157
-111 45 20 -61 72 -83 107 -75 120 8 13 55 -11 90 -46z"/>
</g>
</svg>
